<svg width="134" height="27" viewBox="0 0 134 27" fill="none" xmlns="http://www.w3.org/2000/svg">
<path d="M9.4 3.536C11.768 3.536 13.8373 4.00533 15.608 4.944C17.3787 5.88267 18.744 7.20533 19.704 8.912C20.6853 10.5973 21.176 12.5493 21.176 14.768C21.176 16.9653 20.6853 18.9173 19.704 20.624C18.744 22.3307 17.368 23.6533 15.576 24.592C13.8053 25.5307 11.7467 26 9.4 26H0.984V3.536H9.4ZM9.048 21.264C11.1173 21.264 12.728 20.6987 13.88 19.568C15.032 18.4373 15.608 16.8373 15.608 14.768C15.608 12.6987 15.032 11.088 13.88 9.936C12.728 8.784 11.1173 8.208 9.048 8.208H6.456V21.264H9.048ZM42.066 16.784C42.066 17.296 42.034 17.8293 41.97 18.384H29.586C29.6713 19.4933 30.0233 20.3467 30.642 20.944C31.282 21.52 32.0607 21.808 32.978 21.808C34.3433 21.808 35.2927 21.232 35.826 20.08H41.65C41.3513 21.2533 40.8073 22.3093 40.018 23.248C39.25 24.1867 38.2793 24.9227 37.106 25.456C35.9327 25.9893 34.6207 26.256 33.17 26.256C31.4207 26.256 29.8633 25.8827 28.498 25.136C27.1327 24.3893 26.066 23.3227 25.298 21.936C24.53 20.5493 24.146 18.928 24.146 17.072C24.146 15.216 24.5193 13.5947 25.266 12.208C26.034 10.8213 27.1007 9.75467 28.466 9.008C29.8313 8.26133 31.3993 7.888 33.17 7.888C34.898 7.888 36.434 8.25067 37.778 8.976C39.122 9.70133 40.1673 10.736 40.914 12.08C41.682 13.424 42.066 14.992 42.066 16.784ZM36.466 15.344C36.466 14.4053 36.146 13.6587 35.506 13.104C34.866 12.5493 34.066 12.272 33.106 12.272C32.1887 12.272 31.41 12.5387 30.77 13.072C30.1513 13.6053 29.7673 14.3627 29.618 15.344H36.466ZM53.9848 20.88L57.8568 8.144H63.6808L57.3448 26H50.5928L44.2568 8.144H50.1128L53.9848 20.88Z" fill="#14142B"/>
<path d="M86.44 3.536V26H80.968V16.752H72.456V26H66.984V3.536H72.456V12.336H80.968V3.536H86.44ZM94.1423 6.288C93.1823 6.288 92.3929 6.01067 91.7743 5.456C91.1769 4.88 90.8783 4.176 90.8783 3.344C90.8783 2.49067 91.1769 1.78667 91.7743 1.232C92.3929 0.655998 93.1823 0.367998 94.1423 0.367998C95.0809 0.367998 95.8489 0.655998 96.4463 1.232C97.0649 1.78667 97.3743 2.49067 97.3743 3.344C97.3743 4.176 97.0649 4.88 96.4463 5.456C95.8489 6.01067 95.0809 6.288 94.1423 6.288ZM96.8623 8.144V26H91.3903V8.144H96.8623ZM107.3 11.12C107.94 10.1387 108.74 9.37067 109.7 8.816C110.66 8.24 111.726 7.952 112.9 7.952V13.744H111.396C110.03 13.744 109.006 14.0427 108.324 14.64C107.641 15.216 107.3 16.24 107.3 17.712V26H101.828V8.144H107.3V11.12ZM133.347 16.784C133.347 17.296 133.315 17.8293 133.251 18.384H120.867C120.953 19.4933 121.305 20.3467 121.923 20.944C122.563 21.52 123.342 21.808 124.259 21.808C125.625 21.808 126.574 21.232 127.107 20.08H132.931C132.633 21.2533 132.089 22.3093 131.299 23.248C130.531 24.1867 129.561 24.9227 128.387 25.456C127.214 25.9893 125.902 26.256 124.451 26.256C122.702 26.256 121.145 25.8827 119.779 25.136C118.414 24.3893 117.347 23.3227 116.579 21.936C115.811 20.5493 115.427 18.928 115.427 17.072C115.427 15.216 115.801 13.5947 116.547 12.208C117.315 10.8213 118.382 9.75467 119.747 9.008C121.113 8.26133 122.681 7.888 124.451 7.888C126.179 7.888 127.715 8.25067 129.059 8.976C130.403 9.70133 131.449 10.736 132.195 12.08C132.963 13.424 133.347 14.992 133.347 16.784ZM127.747 15.344C127.747 14.4053 127.427 13.6587 126.787 13.104C126.147 12.5493 125.347 12.272 124.387 12.272C123.47 12.272 122.691 12.5387 122.051 13.072C121.433 13.6053 121.049 14.3627 120.899 15.344H127.747Z" fill="#1D9BF0"/>
</svg>
